<svg id="Capa_1" data-name="Capa 1" xmlns="http://www.w3.org/2000/svg" viewBox="0 0 942.38 943.81"><defs><style>.cls-1{fill:#001ecb;}.cls-2{fill:#284395;}</style></defs><path class="cls-1" d="M724,223.88l-.36,11.31c-.18,5.64-2.27,11.36-10.15,11.11s-10-4.78-9.83-10.93l.38-11.93-3.44-2.86,12,.38-3.44,2.51-.41,12.78c-.13,4,.89,7.27,5.85,7.43,3.87.12,6.36-2.25,6.58-8.91l.31-10.94-3.21-2.69,9.1.29Z" transform="translate(-228.83 -220.58)"/><path class="cls-1" d="M730.72,243.11l.49-.53,7-7.47-5.42-9.94-3.87-3.62,12,1.07-3.23,2.1,3.95,7.29,5.38-6.31L744.42,223l9.07.81-4.56,2.53-6.47,7.4,5.88,10.88,3.91,3.59-12-1.08,3.22-2.06-4.42-8.15L732.72,244l2.84,2.61-9.07-.82Z" transform="translate(-228.83 -220.58)"/><path class="cls-1" d="M764.59,242c.74-4.49,5.22-8,10.72-7.11A8.07,8.07,0,0,1,778.2,236l.65-3.92-2.22-1.58,5.81-2.62v0l1.34-.64-3.56,21.53,2.14,2.08-5.89,1.81-.33-3a6.18,6.18,0,0,1-5.58,1.7C767,250.77,763.67,247.61,764.59,242Zm11.55,6.39,1.26-7.58c.19-2.58-.92-4-3.07-4.36-2.71-.45-4.82,1.64-5.33,4.7-.75,4.52,1.31,7.07,4.3,7.57A4.51,4.51,0,0,0,776.14,248.43Z" transform="translate(-228.83 -220.58)"/><path class="cls-1" d="M785.38,245.55c1-4.66,5-8,9.83-6.94,2.76.58,6.3,2.75,5.66,7.45h0l-.07.3-.07.37-.21,1-11.22-2.36c-.57,3.39,1.06,6.06,4.35,6.75a6.34,6.34,0,0,0,6.21-1.93c-.79,3.77-4.88,5.72-8.38,5C786.36,254.09,784.52,249.64,785.38,245.55Zm4.31-1.84,7,1.46c.55-2.63-.17-4.66-2.27-5.1C792.58,239.69,790.32,240.89,789.69,243.71Z" transform="translate(-228.83 -220.58)"/><path class="cls-1" d="M813.8,243.76l2.92-.78-1.65,6.77a10.94,10.94,0,0,0-1.92-4.12,4.82,4.82,0,0,0-2.57-1.76c-1.58-.4-2.91,0-3.23,1.29-.26,1,.87,2,2.73,3,3.22,1.71,5.17,3.29,4.24,7a5.39,5.39,0,0,1-6.78,3.71,7.81,7.81,0,0,1-3.62-1.92l-2.78.6,1.8-7.36c.65,1.87,1.12,3.78,2.32,5.3a4.65,4.65,0,0,0,2.8,1.58c1.09.27,2.64-.05,3-1.4.47-1.88-1.71-2.84-3.17-3.56-2.94-1.43-4.52-3.23-3.72-6.46s3.75-4.36,6.65-3.63A7.19,7.19,0,0,1,813.8,243.76Z" transform="translate(-228.83 -220.58)"/><path class="cls-1" d="M818.38,258.91l2.61-9.33-2-1.88,2.76-.78,2.26-.63,2.34-.66-4,14.38,1.88,3-8.8-2.47Zm8.08-20.55a2.59,2.59,0,0,1-1.39,5,2.59,2.59,0,0,1,1.39-5Z" transform="translate(-228.83 -220.58)"/><path class="cls-1" d="M838.44,250l.23.07a9.48,9.48,0,0,1,.28-4.3,3.41,3.41,0,0,1,1.36-1.93,2.55,2.55,0,1,1,.72,4.51,2.61,2.61,0,0,1-1.19-.76,6.38,6.38,0,0,0-.16,1.76,4,4,0,0,0,.16,1.19c3.13,1.49,4.48,4.12,3.57,7-1,3.15-4.18,4.43-8,3.47l-2.21.55c2.14,1.71,4.31,3.43,5.6,4.65,1.55,1.52,1.71,2.82,1.29,4.19-.87,2.75-5.19,4.25-10,2.72-3.92-1.23-6.93-3.68-6.1-6.3s4.65-2.57,7.24-2.18c-1.27-1-2.47-2-2.83-2.32l.32-1,2.42-.31,2.37-.64c-3.32-1.44-5-4.17-4-7.19C830.47,249.83,834.29,248.68,838.44,250ZM831,271.94c2.49.78,4.65.28,5.11-1.18s-.82-2.61-1.82-3.53l-1.71-1.46c-2.26-.43-4.57.59-4.94,1.65C827.06,269.15,828.7,271.2,831,271.94Zm4.12-12.54c1.94.61,3.24-.66,4-3.19s.48-4.34-1.47-4.95-3.24.65-4,3.22S833.21,258.79,835.16,259.4Z" transform="translate(-228.83 -220.58)"/><path class="cls-1" d="M855.19,270.78l2.52-6.86c.62-1.69.79-2.46.57-3.37a2.78,2.78,0,0,0-2-1.93,3.26,3.26,0,0,0-4.14,1.54l-3,8.41,1.68,3.14-8.63-3.13,3.11-1.4,3.23-8.89-1.79-2.24,2.86-.7v0l3.57-.88-.4,3.4a5.67,5.67,0,0,1,6-.93c3,1.1,4.49,3.8,3.16,7.44L859,272.17l1.68,3.15-8.63-3.13Z" transform="translate(-228.83 -220.58)"/><path class="cls-1" d="M881.54,276.33,874,273.1l2.34-5.47,7.53,3.23Z" transform="translate(-228.83 -220.58)"/><path class="cls-1" d="M920,278.61l-5.14,10.09c-2.55,5-6.87,9.32-13.9,5.74s-7-8.58-4.25-14.06l5.4-10.64-1.9-4.05,10.7,5.44-4.19.8-5.79,11.4c-1.82,3.57-2.28,7,2.14,9.21,3.45,1.76,6.71.67,9.74-5.27l4.93-9.77L916,273.7l8.12,4.13Z" transform="translate(-228.83 -220.58)"/><path class="cls-1" d="M917.93,298.88l.67-.27,9.47-3.8-.67-11.3-2-4.93,10.35,6.06-3.81.53.48,8.27L940,290l-1.11-3.56,7.87,4.6-5.2.34-9,4,.7,12.34,2,4.92-10.35-6.06,3.79-.5-.53-9.25-8.81,3.75,1.46,3.57-7.87-4.6Z" transform="translate(-228.83 -220.58)"/><path class="cls-1" d="M947.51,317.87l5.3-7.82-1.18-2.61,2.94,0,0,0,3.67,0-1.66,4.09c1.91-1.42,4.16-1.9,5.8-.8a2.55,2.55,0,0,1,.62,3.63,2.6,2.6,0,0,1-3.52.94,2.5,2.5,0,0,1-.75-3.42,6.92,6.92,0,0,0-4.24,2.91l-3.62,5.35.86,3.46-7.6-5.15Z" transform="translate(-228.83 -220.58)"/><path class="cls-1" d="M960.74,320.29c2.81-3.84,7.8-5.21,11.81-2.28,2.28,1.67,4.61,5.1,2.1,9.11l0,0-.18.25-.23.3-.6.83-9.25-6.76c-1.91,2.85-1.53,5.95,1.19,7.94a6.38,6.38,0,0,0,6.45.8c-2.27,3.1-6.8,3.2-9.68,1.09C958.12,328.48,958.27,323.67,960.74,320.29Zm4.68.1,5.74,4.19c1.59-2.17,1.76-4.31,0-5.58C969.71,317.92,967.16,318.07,965.42,320.39Z" transform="translate(-228.83 -220.58)"/><path class="cls-1" d="M987.37,330.32l3,.5-4.29,5.49a10.86,10.86,0,0,0-.05-4.54,4.86,4.86,0,0,0-1.62-2.67c-1.29-1-2.66-1.18-3.48-.14-.65.83,0,2.15,1.27,3.82,2.23,2.88,3.37,5.12,1,8.16a5.37,5.37,0,0,1-7.7.6A7.68,7.68,0,0,1,973,338.3l-2.78-.59,4.66-6c-.17,2-.53,3.91-.06,5.79a4.6,4.6,0,0,0,1.9,2.58c.88.7,2.43,1.05,3.29-.05,1.2-1.52-.39-3.29-1.44-4.55-2.09-2.51-2.79-4.8-.73-7.41s5.21-2.44,7.56-.59A7.24,7.24,0,0,1,987.37,330.32Z" transform="translate(-228.83 -220.58)"/><path class="cls-1" d="M987.41,340.61c3.08-3.63,8.16-4.62,11.94-1.41,2.15,1.83,4.23,5.43,1.43,9.25l0,0-.19.23-.25.29-.66.78L991,342.35c-2.12,2.7-2,5.82.6,8a6.37,6.37,0,0,0,6.38,1.27c-2.49,2.93-7,2.69-9.74.38C984.19,348.59,984.7,343.8,987.41,340.61Zm4.66.44,5.42,4.6c1.74-2,2.07-4.17.44-5.56C996.53,338.9,994,338.87,992.07,341.05Z" transform="translate(-228.83 -220.58)"/><path class="cls-1" d="M1010.81,356.12c1.46-1.79,1.21-3.73,0-4.88-.75-.69-2.06-1.62-2.88-1.44a2.46,2.46,0,0,1-.39,3.14,2.4,2.4,0,0,1-3.34.16c-1.1-1-.9-2.44.16-3.59,1.36-1.47,5.4-1.45,8,.92l.4.37c2.18,2,3.56,5.12.48,8.47-.95,1-4.52,4.86-5.57,6l.08,3.72-4.1-3.77,1.14-2.5a6.76,6.76,0,0,1-6.25-1.54,3.84,3.84,0,0,1-.43-5.66c1.62-1.76,4-1.43,5.93-.37,2.19,1.23,4.82,3.14,6.8.94Zm-4.8,5.06,2.84-3a7.36,7.36,0,0,1-3.8-.59c-1.91-.64-2.94-.52-3.81.43a1.65,1.65,0,0,0,.17,2.37A4.4,4.4,0,0,0,1006,361.18Z" transform="translate(-228.83 -220.58)"/><path class="cls-1" d="M1011.74,369.69l6.64-6.73-.69-2.78,2.89.56,0,0,3.61.7-2.38,3.72c2.13-1.05,4.44-1.11,5.84.27a2.54,2.54,0,0,1,0,3.68,2.6,2.6,0,0,1-3.63.29,2.51,2.51,0,0,1-.12-3.51,7,7,0,0,0-4.7,2.1l-4.54,4.6.22,3.55-6.53-6.44Z" transform="translate(-228.83 -220.58)"/><path class="cls-1" d="M1024.17,374.63c3.95-3.74,9.09-3.5,12.64.25,2.2,2.33,2.49,5.56.49,7.45a2.45,2.45,0,0,1-3.58,0,2.31,2.31,0,0,1,.14-3.46c1-.93,2.94-1.7,1.54-3.18-1.76-1.85-4.83-1.84-7.21.4-3,2.85-3,6.15-.76,8.54a6.13,6.13,0,0,0,6.17,1.88c-2.79,2.64-7.29,1.94-9.63-.53A7.72,7.72,0,0,1,1024.17,374.63Z" transform="translate(-228.83 -220.58)"/><path class="cls-1" d="M1042.8,389.23l-6.8,5.91-.06,3.56-6-6.93,3.45.29,13.24-11.51-.7-2.63,7.56,2.08-8.62,7.44a5.67,5.67,0,0,1,5.25,2.2c2.12,2.44,2.07,5.5-.85,8l-6.31,5.44-.06,3.57-6-6.93,3.4.28,5.54-4.77c1.36-1.18,1.89-1.77,2.14-2.67a2.77,2.77,0,0,0-.83-2.66A3.29,3.29,0,0,0,1042.8,389.23Z" transform="translate(-228.83 -220.58)"/><path class="cls-1" d="M1060.62,417.67l-5-6.48,4.71-3.64,5,6.48Z" transform="translate(-228.83 -220.58)"/><path class="cls-1" d="M1093.16,438.27l-9.38,6.35c-4.67,3.16-10.52,4.83-15-1.7s-2-10.92,3.09-14.37l9.88-6.69.3-4.47,6.73,9.94-4.06-1.32-10.58,7.16c-3.32,2.25-5.37,5-2.59,9.1,2.18,3.21,5.56,3.84,11.07.1l9-6.16L1092,432l5.11,7.54Z" transform="translate(-228.83 -220.58)"/><path class="cls-1" d="M1099.89,449.88,1084,459.64l-.5,4.65-6.27-10.24,4.16,1.6,16.15-9.9.5-4.45,6.27,10.24Z" transform="translate(-228.83 -220.58)"/><path class="cls-1" d="M1096.44,471.09c4-2.14,9.54-.72,12.16,4.2a8.18,8.18,0,0,1,.91,2.94l3.51-1.87-.1-2.72,5.62,3h0l1.32.68-19.27,10.25-.35,3-5-3.57,2.2-2.09a6.23,6.23,0,0,1-4.74-3.41C1091,478.29,1091.45,473.74,1096.44,471.09Zm1.94,13.06,6.78-3.6c2.17-1.43,2.63-3.17,1.61-5.09-1.3-2.43-4.24-2.83-7-1.38-4,2.15-4.83,5.34-3.41,8A4.49,4.49,0,0,0,1098.38,484.15Z" transform="translate(-228.83 -220.58)"/><path class="cls-1" d="M1106.28,489.74c4.29-2.06,9.34-.89,11.48,3.59,1.21,2.55,1.64,6.67-2.47,9v0l-.28.13-.33.16-.92.44-4.94-10.33c-3,1.6-4.18,4.52-2.72,7.55a6.32,6.32,0,0,0,5.3,3.76c-3.47,1.66-7.51-.41-9.05-3.63C1100.09,495.71,1102.51,491.54,1106.28,489.74Zm4.08,2.3,3.06,6.41c2.43-1.15,3.6-3,2.67-4.89C1115.3,491.9,1113,490.83,1110.36,492Z" transform="translate(-228.83 -220.58)"/><path class="cls-1" d="M1125,511.21l2.4,1.85-6.39,2.8a11,11,0,0,0,2.11-4,4.9,4.9,0,0,0-.16-3.11c-.65-1.5-1.78-2.31-3-1.78-1,.42-1,1.89-.69,4,.6,3.59.54,6.1-3,7.64a5.37,5.37,0,0,1-7.06-3.12,7.74,7.74,0,0,1-.68-4l-2.17-1.84,6.94-3c-1.09,1.66-2.32,3.19-2.8,5.07a4.6,4.6,0,0,0,.45,3.17c.44,1,1.64,2.07,2.92,1.52,1.77-.77,1.22-3.09.89-4.69-.64-3.2-.18-5.55,2.88-6.88s5.74.33,6.93,3.08A7.27,7.27,0,0,1,1125,511.21Z" transform="translate(-228.83 -220.58)"/><path class="cls-1" d="M1115.72,524.08l9-3.59.26-2.74,2.3,1.71,1.88,1.41,1.93,1.46-13.85,5.54-1.24,3.31-3.39-8.49ZM1137,518a2.58,2.58,0,0,1-4.8,1.92A2.58,2.58,0,0,1,1137,518Z" transform="translate(-228.83 -220.58)"/><path class="cls-1" d="M1135,534.57l.09.22a9.48,9.48,0,0,1,3.58-2.38,3.38,3.38,0,0,1,2.35-.1,2.55,2.55,0,0,1,.13,4.84,2.57,2.57,0,0,1-3.38-2.93,6.27,6.27,0,0,0-1.5.94,4.55,4.55,0,0,0-.85.85c.72,3.39-.55,6.06-3.4,7.09-3.09,1.13-6-.62-7.61-4.25l-1.78-1.42c-.06,2.74-.1,5.5-.29,7.27-.27,2.16-1.2,3.07-2.54,3.56-2.72,1-6.53-1.54-8.26-6.3-1.4-3.86-1.29-7.74,1.3-8.68s4.86,2.14,6.13,4.43c0-1.64.08-3.17.12-3.66l1-.37,1.71,1.73,2,1.5c-.88-3.51.28-6.5,3.25-7.58C1130.27,528.15,1133.5,530.48,1135,534.57ZM1113.06,542c.9,2.46,2.6,3.87,4,3.34s1.57-2.23,1.7-3.58l.12-2.25c-1-2-3.25-3.27-4.31-2.92C1112.86,537.18,1112.23,539.72,1113.06,542Zm12.46-4.34c.69,1.92,2.48,2.17,5,1.27s3.73-2.26,3-4.18-2.49-2.17-5-1.26S1124.82,535.76,1125.52,537.68Z" transform="translate(-228.83 -220.58)"/><path class="cls-1" d="M1128.65,560.52l7-2.16c1.71-.54,2.43-.88,3-1.6A2.79,2.79,0,0,0,1139,554a3.27,3.27,0,0,0-3.74-2.36l-8.53,2.69-1.47,3.24-2.76-8.75,3,1.62,9-2.84.7-2.79,2.29,1.85h0l2.86,2.31-2.94,1.74a5.64,5.64,0,0,1,4.39,4.21c1,3.08-.29,5.87-4,7l-7.95,2.47-1.47,3.25-2.76-8.76Z" transform="translate(-228.83 -220.58)"/><path class="cls-1" d="M1140.27,584.83l-2-8,5.77-1.46,2,8Z" transform="translate(-228.83 -220.58)"/><path class="cls-1" d="M1161.82,616.73l-11.13,2.06c-5.55,1-11.58.2-13-7.55s2.53-10.81,8.58-11.93l11.74-2.16,2.06-4,2.18,11.8-3.18-2.83-12.57,2.32c-4,.73-6.92,2.42-6,7.3.71,3.81,3.55,5.74,10.1,4.53l10.76-2,1.94-3.72,1.66,9Z" transform="translate(-228.83 -220.58)"/><path class="cls-1" d="M1144.46,627.43l.62.36,8.77,5.22,8.57-7.41,2.72-4.55,1.48,11.91-2.73-2.71-6.28,5.41,7.3,3.92,2.16-3.05,1.12,9.05-3.43-3.93-8.61-4.75-9.38,8.05-2.68,4.58-1.48-11.91,2.7,2.72,7-6.05-8.33-4.72-2,3.33-1.12-9Z" transform="translate(-228.83 -220.58)"/><path class="cls-1" d="M1152.69,660.3c4.55-.23,9,3.4,9.23,9a8.1,8.1,0,0,1-.43,3.05l4-.2,1.06-2.5,3.8,5.12h0l.91,1.18L1149.41,677l-1.58,2.53-3-5.36,2.88-1a6.21,6.21,0,0,1-2.85-5.1C1144.66,664.48,1147.06,660.58,1152.69,660.3ZM1148.9,673l7.67-.39c2.57-.36,3.73-1.75,3.62-3.92-.14-2.75-2.64-4.36-5.73-4.21-4.58.23-6.63,2.78-6.48,5.81A4.52,4.52,0,0,0,1148.9,673Z" transform="translate(-228.83 -220.58)"/><path class="cls-1" d="M1153.62,681.36c4.76-.08,8.86,3.09,8.94,8,0,2.82-1.29,6.75-6,7.17v0h-.68l-1,0-.18-11.46c-3.43.2-5.67,2.37-5.62,5.74a6.36,6.36,0,0,0,3.25,5.63c-3.84.06-6.65-3.5-6.71-7.07C1145.51,684.21,1149.44,681.43,1153.62,681.36Zm2.75,3.8.11,7.1c2.69,0,4.51-1.19,4.47-3.33C1160.92,687.09,1159.26,685.14,1156.37,685.16Z" transform="translate(-228.83 -220.58)"/><path class="cls-1" d="M1161.51,708.72l1.39,2.69-7-.16a11,11,0,0,0,3.61-2.76,4.76,4.76,0,0,0,1.17-2.89c0-1.63-.63-2.84-2-2.88-1,0-1.73,1.28-2.3,3.3-1,3.51-2.1,5.76-6,5.65a5.37,5.37,0,0,1-5.07-5.82,7.77,7.77,0,0,1,1.1-4l-1.19-2.58,7.58.18c-1.69,1-3.45,1.9-4.68,3.4a4.64,4.64,0,0,0-.94,3.07c0,1.12.61,2.57,2,2.61,1.94,0,2.41-2.28,2.8-3.87.77-3.17,2.18-5.11,5.51-5s5.06,2.72,5,5.71A7.22,7.22,0,0,1,1161.51,708.72Z" transform="translate(-228.83 -220.58)"/><path class="cls-1" d="M1147.69,716.47l9.68.55,1.39-2.38,1.36,2.53,1.11,2.08,1.14,2.14-14.91-.85-2.52,2.48.52-9.13ZM1169.5,720a2.64,2.64,0,0,1-2.73,2.44,2.61,2.61,0,0,1-2.43-2.73,2.58,2.58,0,0,1,2.72-2.43A2.6,2.6,0,0,1,1169.5,720Z" transform="translate(-228.83 -220.58)"/><path class="cls-1" d="M1160.72,734.14l0,.23a9.67,9.67,0,0,1,4.26-.65,3.36,3.36,0,0,1,2.17.91,2.53,2.53,0,1,1-3.75.35,6.69,6.69,0,0,0-1.76.22,4.42,4.42,0,0,0-1.13.42c-.77,3.38-3.06,5.26-6.07,5-3.29-.28-5.22-3.12-5.11-7.07l-1-2c-1.21,2.45-2.41,4.94-3.33,6.46-1.16,1.85-2.39,2.29-3.81,2.16-2.88-.25-5.27-4.15-4.83-9.2.36-4.09,2.1-7.56,4.85-7.32,2.6.23,3.5,4,3.68,6.61.75-1.47,1.41-2.85,1.65-3.27l1.09.09.82,2.29,1.14,2.19c.69-3.56,3-5.78,6.15-5.51C1159.16,726.32,1161.1,729.8,1160.72,734.14Zm-23-2.51c-.23,2.61.72,4.61,2.24,4.74s2.38-1.36,3.06-2.53l1.06-2c-.07-2.29-1.56-4.33-2.68-4.47C1139.56,727.16,1137.91,729.2,1137.7,731.63Zm13.12,1.33c-.17,2,1.34,3,4,3.25s4.34-.47,4.52-2.5-1.34-3-4-3.26S1151,730.93,1150.82,733Z" transform="translate(-228.83 -220.58)"/><path class="cls-1" d="M1144,755l7.24,1c1.78.23,2.57.23,3.41-.17a2.77,2.77,0,0,0,1.45-2.38,3.26,3.26,0,0,0-2.39-3.71l-8.87-1.16-2.7,2.32,1.19-9.11,2,2.74,9.37,1.23,1.8-2.23,1.3,2.64h0l1.62,3.3-3.4.34a5.69,5.69,0,0,1,2.2,5.68c-.42,3.2-2.74,5.19-6.58,4.69l-8.26-1.12-2.7,2.32,1.19-9.1Z" transform="translate(-228.83 -220.58)"/><path class="cls-1" d="M1144.3,781.91l1.53-8,5.85,1.11-1.53,8Z" transform="translate(-228.83 -220.58)"/><path class="cls-1" d="M1150.39,819.92l-11-2.83c-5.47-1.41-10.59-4.7-8.61-12.33s6.85-8.73,12.81-7.19l11.55,3,3.55-2.73-3,11.62-1.69-3.92-12.38-3.19c-3.88-1-7.29-.73-8.53,4.08-1,3.75.8,6.7,7.25,8.37l10.6,2.7,3.33-2.55-2.28,8.82Z" transform="translate(-228.83 -220.58)"/><path class="cls-1" d="M1130.13,822.31l.42.6,5.75,8.43,10.89-3.1,4.39-3-3.68,11.43-1.34-3.61-8,2.25,5,6.64,3.24-1.85-2.79,8.67-1.46-5-5.8-7.95-11.91,3.34-4.36,3,3.68-11.43,1.3,3.6,8.93-2.52-5.56-7.79-3.18,2.19,2.8-8.67Z" transform="translate(-228.83 -220.58)"/><path class="cls-1" d="M1118,855.28l8.78,3.5,2.3-1.72.61,2.88h0l.76,3.6-4.35-.75c1.8,1.56,2.75,3.66,2,5.49a2.53,2.53,0,0,1-3.4,1.39,2.59,2.59,0,0,1-1.68-3.23,2.5,2.5,0,0,1,3.18-1.47,6.93,6.93,0,0,0-3.76-3.52l-6-2.39-3.19,1.58,3.4-8.52Z" transform="translate(-228.83 -220.58)"/><path class="cls-1" d="M1118.45,868.73c4.35,1.91,6.76,6.5,4.76,11-1.14,2.59-4,5.61-8.45,4v0l-.29-.13-.34-.15-.93-.41,4.61-10.49c-3.2-1.26-6.15-.21-7.5,2.87a6.34,6.34,0,0,0,.61,6.47c-3.52-1.55-4.59-6-3.15-9.22C1109.88,867.93,1114.62,867,1118.45,868.73Zm.91,4.6-2.86,6.5c2.46,1.08,4.59.79,5.45-1.17C1122.69,877,1122,874.52,1119.36,873.33Z" transform="translate(-228.83 -220.58)"/><path class="cls-1" d="M1114.36,896.89l.16,3-6.29-3a10.88,10.88,0,0,0,4.43-1,4.87,4.87,0,0,0,2.26-2.15c.71-1.47.58-2.85-.61-3.43-1-.46-2.11.45-3.46,2.06-2.33,2.8-4.28,4.39-7.76,2.7a5.38,5.38,0,0,1-2.24-7.39,7.66,7.66,0,0,1,2.62-3.15v-2.85l6.83,3.28c-2,.25-3.93.32-5.67,1.18a4.66,4.66,0,0,0-2.12,2.41c-.48,1-.5,2.59.76,3.2,1.74.85,3.13-1.09,4.14-2.38,2-2.58,4.09-3.76,7.08-2.3s3.5,4.56,2.19,7.25A7.18,7.18,0,0,1,1114.36,896.89Z" transform="translate(-228.83 -220.58)"/><path class="cls-1" d="M1104.32,899.12c4.21,2.23,6.27,7,3.94,11.37-1.32,2.49-4.39,5.29-8.72,3.37l0,0-.27-.14-.33-.18-.9-.47,5.37-10.12c-3.09-1.49-6.11-.67-7.69,2.3a6.37,6.37,0,0,0,.13,6.5c-3.39-1.8-4.13-6.28-2.46-9.43C1095.84,897.7,1100.63,897.16,1104.32,899.12Zm.58,4.65-3.34,6.28c2.37,1.26,4.52,1.13,5.53-.76C1108,907.67,1107.43,905.16,1104.9,903.77Z" transform="translate(-228.83 -220.58)"/><path class="cls-1" d="M1094.18,925.3c2.07,1.05,3.91.39,4.76-1.08.52-.88,1.14-2.36.8-3.11a2.48,2.48,0,0,1-3.16.28,2.39,2.39,0,0,1-.87-3.22c.75-1.3,2.19-1.4,3.54-.62,1.73,1,2.57,5,.81,8l-.27.47c-1.49,2.56-4.24,4.58-8.18,2.28l-7.06-4.15-3.62.88,2.81-4.82,2.69.59a6.73,6.73,0,0,1,.16-6.44,3.84,3.84,0,0,1,5.44-1.63c2.06,1.2,2.25,3.63,1.63,5.71-.73,2.41-2,5.39.54,6.85Zm-6-3.59,3.52,2.13a7.43,7.43,0,0,1-.24-3.84c.22-2-.11-3-1.23-3.63a1.65,1.65,0,0,0-2.28.67A4.41,4.41,0,0,0,1088.21,921.71Z" transform="translate(-228.83 -220.58)"/><path class="cls-1" d="M1081.12,929.12l8,5,2.57-1.27.07,2.94,0,0,.09,3.67-4.14-1.53c1.48,1.86,2,4.1,1,5.77a2.54,2.54,0,0,1-3.6.74,2.6,2.6,0,0,1-1.06-3.48,2.52,2.52,0,0,1,3.41-.87,7,7,0,0,0-3.06-4.14l-5.46-3.45-3.43,1,4.9-7.76Z" transform="translate(-228.83 -220.58)"/><path class="cls-1" d="M1079,942.3c4.5,3.06,5.36,8.14,2.45,12.41-1.8,2.64-4.9,3.61-7.17,2.06a2.44,2.44,0,0,1-.79-3.49,2.3,2.3,0,0,1,3.41-.6c1.13.77,2.29,2.5,3.44.82,1.43-2.11.77-5.12-1.93-7-3.43-2.34-6.65-1.66-8.51,1.07a6.14,6.14,0,0,0-.52,6.43c-3.17-2.16-3.45-6.71-1.53-9.52A7.72,7.72,0,0,1,1079,942.3Z" transform="translate(-228.83 -220.58)"/><path class="cls-1" d="M1068.67,963.62l-7.22-5.38-3.5.7,5.49-7.36.45,3.43L1078,965.49l2.42-1.25-.41,7.84-9.12-6.83a5.64,5.64,0,0,1-1,5.59c-1.92,2.59-4.92,3.2-8,.88l-6.66-5-3.49.7,5.48-7.36.45,3.39,5.84,4.39c1.44,1.08,2.13,1.46,3.06,1.52a2.79,2.79,0,0,0,2.43-1.38A3.29,3.29,0,0,0,1068.67,963.62Z" transform="translate(-228.83 -220.58)"/><path class="cls-1" d="M1044.68,987.11l5.26-6.29,4.56,3.82-5.26,6.28Z" transform="translate(-228.83 -220.58)"/><path class="cls-1" d="M1031.49,1023.29l-8.2-7.8c-4.09-3.89-7-9.26-1.53-15s10.24-4.29,14.7,0l8.64,8.23,4.43-.67-8.27,8.7.42-4.25-9.26-8.81c-2.9-2.76-6-4.18-9.44-.58-2.67,2.8-2.56,6.24,2.27,10.83l8,7.53,4.14-.61-6.28,6.6Z" transform="translate(-228.83 -220.58)"/><path class="cls-1" d="M1021.6,1032.34l-12.93-13.46-4.65.51,8.66-8.31-.67,4.41,13.11,13.65,4.46-.46-8.66,8.31Z" transform="translate(-228.83 -220.58)"/><path class="cls-1" d="M1000.14,1033.51c3,3.47,2.75,9.17-1.5,12.78a8.12,8.12,0,0,1-2.68,1.52l2.58,3,2.63-.67-1.75,6.12,0,0-.38,1.44-14.14-16.63-3,.28,2.42-5.66,2.51,1.7a6.22,6.22,0,0,1,2.32-5.36C991.93,1029.68,996.48,1029.21,1000.14,1033.51Zm-12.35,4.69,5,5.85c1.85,1.82,3.66,1.89,5.31.49,2.1-1.79,1.86-4.75-.14-7.11-3-3.5-6.25-3.57-8.56-1.61A4.54,4.54,0,0,0,987.79,1038.2Z" transform="translate(-228.83 -220.58)"/><path class="cls-1" d="M984,1047.11c2.93,3.76,2.87,8.94-1,12-2.23,1.73-6.17,3-9.34-.48l0,0-.19-.24-.23-.3-.62-.8,9-7c-2.22-2.62-5.31-3.1-8-1a6.32,6.32,0,0,0-2.53,6c-2.37-3-1.22-7.42,1.6-9.61C976.88,1042.35,981.47,1043.81,984,1047.11Zm-1.38,4.48-5.61,4.37c1.66,2.12,3.67,2.88,5.36,1.56C983.86,1056.39,984.41,1053.89,982.66,1051.59Z" transform="translate(-228.83 -220.58)"/><path class="cls-1" d="M967.07,1070l-1.29,2.74-4.11-5.63a11,11,0,0,0,4.39,1.19,4.84,4.84,0,0,0,3-.82c1.33-1,1.87-2.24,1.1-3.31-.62-.86-2.07-.6-4,.18-3.39,1.35-5.85,1.83-8.12-1.32a5.36,5.36,0,0,1,1.54-7.56,7.63,7.63,0,0,1,3.8-1.53l1.33-2.52,4.47,6.13c-1.86-.71-3.62-1.58-5.56-1.65a4.67,4.67,0,0,0-3,1.12c-.91.66-1.67,2-.86,3.18,1.14,1.57,3.28.53,4.77-.13,3-1.32,5.39-1.37,7.34,1.33s.91,5.67-1.52,7.42A7.1,7.1,0,0,1,967.07,1070Z" transform="translate(-228.83 -220.58)"/><path class="cls-1" d="M952.52,1063.71l5.44,8,2.73-.34-1.18,2.62-1,2.14-1,2.2L949.14,1066l-3.5-.5,7.56-5.14ZM963,1083.14a2.63,2.63,0,0,1-3.59-.68,2.59,2.59,0,1,1,3.59.68Z" transform="translate(-228.83 -220.58)"/><path class="cls-1" d="M946.43,1084.78l-.2.13a9.57,9.57,0,0,1,3.1,3,3.35,3.35,0,0,1,.6,2.27,2.55,2.55,0,1,1-3.91-2.35,2.56,2.56,0,0,1,1.35-.41,6.53,6.53,0,0,0-1.25-1.27,4.71,4.71,0,0,0-1-.64c-3.16,1.44-6,.77-7.66-1.79-1.77-2.78-.69-6,2.51-8.36l1-2c-2.68.53-5.39,1.08-7.16,1.28-2.17.2-3.26-.51-4-1.71-1.55-2.45.1-6.71,4.37-9.42,3.48-2.21,7.29-2.93,8.76-.61s-1,5.21-3,6.94c1.62-.3,3.12-.61,3.6-.67l.58.92-1.32,2-1,2.24c3.24-1.62,6.41-1.13,8.11,1.54C951.69,1078.79,950.1,1082.45,946.43,1084.78Zm-12-19.81c-2.21,1.4-3.22,3.37-2.4,4.66s2.53,1.06,3.87.89l2.23-.36c1.77-1.45,2.49-3.88,1.92-4.84C939.11,1063.73,936.49,1063.66,934.42,1065Zm6.93,11.23c-1.73,1.1-1.59,2.9-.17,5.14s3,3.17,4.74,2.07,1.58-2.9.15-5.16S943.07,1075.11,941.35,1076.2Z" transform="translate(-228.83 -220.58)"/><path class="cls-1" d="M919.73,1084.18l3.62,6.35c.9,1.56,1.38,2.19,2.21,2.61a2.79,2.79,0,0,0,2.77-.3,3.25,3.25,0,0,0,1.49-4.15l-4.46-7.75-3.48-.74,8-4.58-.93,3.28,4.71,8.19,2.87.08-1.3,2.63v0l-1.63,3.3-2.34-2.5a5.68,5.68,0,0,1-3.17,5.2c-2.8,1.61-5.79,1-7.72-2.38l-4.13-7.24-3.49-.73,8-4.59Z" transform="translate(-228.83 -220.58)"/><path class="cls-1" d="M898.49,1100.77l7.33-3.68,2.67,5.32-7.33,3.67Z" transform="translate(-228.83 -220.58)"/><path class="cls-1" d="M872,1128.71l-4.41-10.43c-2.2-5.2-2.69-11.26,4.57-14.33s11.1.14,13.49,5.8l4.65,11,4.33,1.15-11.05,4.68,2.08-3.72-5-11.78c-1.56-3.69-3.85-6.23-8.43-4.29-3.57,1.51-4.84,4.7-2.24,10.84l4.3,10.07,4,1.09-8.39,3.55Z" transform="translate(-228.83 -220.58)"/><path class="cls-1" d="M857.79,1114.06l-.22.7-3.2,9.69,9.08,6.77,5,1.67-11.31,4,2.05-3.26-6.63-5-2.26,8,3.44,1.45-8.59,3.05,3.09-4.2,2.79-9.44-9.89-7.42-5.06-1.63,11.31-4-2.06,3.22,7.42,5.56,2.81-9.15-3.67-1.19,8.59-3.05Z" transform="translate(-228.83 -220.58)"/><path class="cls-1" d="M827.49,1129.19a9.07,9.07,0,0,1-6.78,10.94,8.39,8.39,0,0,1-3.08.24l1,3.83,2.67.51-4.18,4.81v0l-1,1.14-5.74-21.06-2.81-1,4.59-4.11,1.56,2.61a6.17,6.17,0,0,1,4.37-3.87C821.68,1122.24,826,1123.74,827.49,1129.19Zm-13.17-1,2,7.42c.91,2.43,2.51,3.26,4.61,2.69,2.65-.72,3.69-3.51,2.88-6.5-1.21-4.42-4.14-5.88-7.06-5.08A4.48,4.48,0,0,0,814.32,1128.19Z" transform="translate(-228.83 -220.58)"/><path class="cls-1" d="M807.1,1134.68c1,4.65-1.2,9.31-6,10.4-2.76.63-6.88.13-8.26-4.4h0l-.07-.3-.08-.37-.22-1,11.17-2.54c-.89-3.31-3.49-5.06-6.77-4.32a6.37,6.37,0,0,0-4.84,4.34c-.85-3.74,2.06-7.23,5.54-8C802.64,1127.33,806.17,1130.6,807.1,1134.68Zm-3.15,3.47-6.93,1.57c.59,2.62,2.09,4.17,4.18,3.69C803,1143,804.55,1141,804,1138.15Z" transform="translate(-228.83 -220.58)"/><path class="cls-1" d="M782,1148.17l-2.34,1.93-1.32-6.85a11.07,11.07,0,0,0,3.46,3,4.9,4.9,0,0,0,3.08.53c1.6-.31,2.64-1.23,2.39-2.53-.19-1-1.62-1.43-3.72-1.55-3.63-.21-6.07-.83-6.79-4.64a5.37,5.37,0,0,1,4.61-6.19,7.75,7.75,0,0,1,4.1.23l2.27-1.71,1.44,7.44c-1.38-1.43-2.6-3-4.33-3.85a4.61,4.61,0,0,0-3.2-.26c-1.1.21-2.38,1.14-2.12,2.51.36,1.9,2.74,1.87,4.38,1.91,3.26.07,5.45,1,6.07,4.32s-1.59,5.52-4.53,6.08A7.2,7.2,0,0,1,782,1148.17Z" transform="translate(-228.83 -220.58)"/><path class="cls-1" d="M771.54,1136.31l1.52,9.57,2.62.86-2.19,1.86-1.79,1.52-1.85,1.57L767.51,1137l-3-1.94,9-1.43Zm1.23,22a2.59,2.59,0,1,1-.81-5.11,2.59,2.59,0,1,1,.81,5.11Z" transform="translate(-228.83 -220.58)"/><path class="cls-1" d="M757.05,1152.79l-.24,0a9.66,9.66,0,0,1,1.54,4,3.36,3.36,0,0,1-.43,2.32,2.55,2.55,0,1,1-2.54-3.79,2.49,2.49,0,0,1,1.4.2,6,6,0,0,0-.59-1.68,4.36,4.36,0,0,0-.64-1c-3.47,0-5.79-1.87-6.17-4.88-.42-3.27,1.94-5.76,5.83-6.49l1.77-1.43c-2.65-.66-5.34-1.31-7-1.88-2-.74-2.73-1.85-2.91-3.27-.36-2.87,2.94-6,8-6.66,4.09-.52,7.84.44,8.19,3.18.33,2.59-3.16,4.27-5.68,5,1.6.41,3.08.77,3.55.92l.14,1.08-2.07,1.29-1.89,1.58c3.62-.08,6.28,1.7,6.68,4.84C764.36,1149.6,761.37,1152.24,757.05,1152.79Zm-2.44-23c-2.6.32-4.35,1.68-4.15,3.2s1.83,2,3.12,2.45l2.17.61c2.22-.55,3.9-2.45,3.79-3.56C759.38,1130.63,757,1129.45,754.61,1129.76Zm1.49,13.11c-2,.25-2.67,2-2.33,4.58s1.38,4.14,3.4,3.88,2.67-1.94,2.33-4.61S758.12,1142.61,756.1,1142.87Z" transform="translate(-228.83 -220.58)"/><path class="cls-1" d="M733.15,1140.89l.57,7.29c.15,1.79.32,2.56.89,3.3a2.79,2.79,0,0,0,2.64.91,3.26,3.26,0,0,0,3.11-3.13l-.74-8.91-2.84-2.15,9.15-.76-2.25,2.57.79,9.42,2.56,1.29-2.3,1.83v0l-2.88,2.29-1.05-3.26a5.68,5.68,0,0,1-5.08,3.36c-3.22.27-5.66-1.58-6-5.44l-.66-8.3-2.84-2.15,9.15-.76Z" transform="translate(-228.83 -220.58)"/><path class="cls-1" d="M706.89,1146.89l8.19-.22.16,5.95-8.19.22Z" transform="translate(-228.83 -220.58)"/><path class="cls-1" d="M671.06,1161l.41-11.32c.2-5.64,2.32-11.34,10.2-11.06s10,4.82,9.78,11l-.44,11.93,3.44,2.88-12-.43,3.46-2.5.47-12.78c.14-4-.86-7.27-5.82-7.45-3.88-.15-6.38,2.21-6.62,8.87l-.37,11,3.21,2.7-9.11-.33Z" transform="translate(-228.83 -220.58)"/><path class="cls-1" d="M664.4,1141.71l-.5.53-7,7.43,5.37,10,3.85,3.65-11.94-1.14,3.23-2.08-3.91-7.31-5.41,6.29,2.5,2.76-9.07-.86,4.57-2.5,6.51-7.38-5.83-10.9-3.89-3.61,12,1.13-3.23,2,4.37,8.17,6.42-7.11-2.83-2.62,9.07.86Z" transform="translate(-228.83 -220.58)"/><path class="cls-1" d="M629.58,1136.94l-1.52,9.33,2.18,1.87-2.68,1.21v0l-3.35,1.52-.21-4.41c-1.14,2.09-3,3.48-4.93,3.16a2.55,2.55,0,0,1-2.09-3,2.6,2.6,0,0,1,2.79-2.33,2.5,2.5,0,0,1,2.13,2.79,6.92,6.92,0,0,0,2.62-4.43l1-6.38-2.24-2.77,9.06,1.47Z" transform="translate(-228.83 -220.58)"/><path class="cls-1" d="M616.54,1140.31c-.93,4.67-4.89,8-9.76,7-2.76-.55-6.32-2.68-5.74-7.38h0l.06-.3.07-.37.2-1,11.24,2.24c.54-3.4-1.12-6-4.42-6.71a6.37,6.37,0,0,0-6.19,2c.75-3.76,4.83-5.76,8.33-5.06C615.46,1131.78,617.35,1136.21,616.54,1140.31Zm-4.29,1.88-7-1.39c-.53,2.64.22,4.66,2.32,5.08C609.4,1146.23,611.65,1145,612.25,1142.19Z" transform="translate(-228.83 -220.58)"/><path class="cls-1" d="M588.16,1142.41l-2.92.81,1.58-6.79a11,11,0,0,0,2,4.1,4.85,4.85,0,0,0,2.59,1.73c1.59.38,2.91,0,3.22-1.33.25-1-.9-2-2.76-2.93-3.24-1.68-5.21-3.23-4.31-7a5.36,5.36,0,0,1,6.73-3.78,7.79,7.79,0,0,1,3.65,1.88l2.77-.63-1.72,7.38c-.68-1.87-1.17-3.77-2.38-5.28a4.66,4.66,0,0,0-2.81-1.55c-1.1-.26-2.64.07-3,1.43-.44,1.89,1.74,2.83,3.22,3.53,3,1.4,4.56,3.18,3.78,6.42s-3.7,4.4-6.61,3.71A7.17,7.17,0,0,1,588.16,1142.41Z" transform="translate(-228.83 -220.58)"/><path class="cls-1" d="M583.81,1133.08c-1.28,4.59-5.47,7.63-10.25,6.3-2.72-.76-6.12-3.15-5.18-7.79h0l.08-.29.1-.36.27-1,11,3.07c.79-3.35-.67-6.12-3.91-7a6.37,6.37,0,0,0-6.32,1.53c1-3.7,5.24-5.39,8.68-4.43C583.37,1124.5,584.92,1129.06,583.81,1133.08Zm-4.42,1.57-6.85-1.9c-.72,2.58-.13,4.65,1.93,5.23C576.24,1138.47,578.58,1137.42,579.39,1134.65Z" transform="translate(-228.83 -220.58)"/><path class="cls-1" d="M556.06,1128.83c-.58,2.25.46,3.9,2.08,4.42,1,.31,2.56.61,3.22.11a2.48,2.48,0,0,1-1-3,2.4,2.4,0,0,1,3-1.55c1.42.46,1.84,1.84,1.36,3.33-.61,1.91-4.29,3.59-7.63,2.52l-.52-.17c-2.81-.9-5.38-3.15-4-7.49.42-1.33,2-6.3,2.53-7.79l-1.64-3.35,5.31,1.7v2.76a6.75,6.75,0,0,1,6.32-1.23,3.84,3.84,0,0,1,2.77,5c-.73,2.27-3.07,3-5.23,2.83-2.51-.2-5.7-.83-6.57,2Zm2.23-6.6-1.33,3.89a7.48,7.48,0,0,1,3.7-1.06c2-.21,2.89-.75,3.28-2a1.66,1.66,0,0,0-1.15-2.09A4.41,4.41,0,0,0,558.29,1122.23Z" transform="translate(-228.83 -220.58)"/><path class="cls-1" d="M549.52,1116.9l-3.21,8.89,1.79,2.24-2.85.7v0l-3.57.89.6-4.38c-1.5,1.85-3.57,2.87-5.42,2.2a2.54,2.54,0,0,1-1.5-3.36,2.6,2.6,0,0,1,3.17-1.78,2.51,2.51,0,0,1,1.58,3.14,7,7,0,0,0,3.39-3.88l2.19-6.08-1.69-3.13,8.64,3.11Z" transform="translate(-228.83 -220.58)"/><path class="cls-1" d="M536.17,1117.62c-2,5.05-6.8,7-11.6,5.06-3-1.19-4.58-4-3.56-6.56a2.45,2.45,0,0,1,3.25-1.51,2.29,2.29,0,0,1,1.32,3.2c-.51,1.26-2,2.77-.06,3.53,2.36,1,5.16-.35,6.37-3.38,1.55-3.85.19-6.85-2.87-8.08a6.16,6.16,0,0,0-6.4.88c1.43-3.57,5.81-4.81,9-3.55A7.73,7.73,0,0,1,536.17,1117.62Z" transform="translate(-228.83 -220.58)"/><path class="cls-1" d="M513.14,1112.16l3.7-8.21-1.44-3.26,8.37,3.77-3.26,1.18-7.21,16,1.74,2.09L507.3,1125l4.72-10.37a5.68,5.68,0,0,1-5.69.2c-2.94-1.33-4.18-4.13-2.58-7.66l3.45-7.58-1.44-3.26,8.37,3.78-3.21,1.16-3,6.65c-.74,1.64-1,2.39-.82,3.32a2.8,2.8,0,0,0,1.86,2.07A3.31,3.31,0,0,0,513.14,1112.16Z" transform="translate(-228.83 -220.58)"/><path class="cls-1" d="M476.06,1088.84l7.18,4-2.87,5.22-7.18-4Z" transform="translate(-228.83 -220.58)"/><path class="cls-1" d="M438,1082.84l6.09-9.54c3-4.76,7.75-8.6,14.4-4.36s6.17,9.22,2.86,14.4L455,1093.4l1.49,4.22-10.11-6.45,4.24-.4,6.88-10.77c2.15-3.38,2.94-6.71-1.24-9.38-3.27-2.08-6.62-1.32-10.2,4.3l-5.86,9.25,1.39,3.95-7.68-4.9Z" transform="translate(-228.83 -220.58)"/><path class="cls-1" d="M427.25,1074.86,438,1059.6l-1.39-4.47,9.81,6.9-4.45.19-10.9,15.49,1.31,4.29-9.82-6.91Z" transform="translate(-228.83 -220.58)"/><path class="cls-1" d="M422,1054c-2.84,3.56-8.47,4.46-12.83,1a8.11,8.11,0,0,1-2-2.34l-2.49,3.11,1.18,2.46-6.35-.55,0,0-1.49-.1,13.62-17-.86-2.86,6,1.29-1.19,2.79a6.18,6.18,0,0,1,5.7,1.25C424.19,1045.25,425.53,1049.62,422,1054Zm-7-11.21-4.79,6c-1.42,2.17-1.15,4,.55,5.31,2.15,1.72,5,.91,6.94-1.51,2.86-3.58,2.31-6.81-.06-8.7A4.5,4.5,0,0,0,415,1042.82Z" transform="translate(-228.83 -220.58)"/><path class="cls-1" d="M405.56,1040.83c-3.12,3.59-8.21,4.52-12,1.26-2.13-1.85-4.16-5.47-1.32-9.26l0,0,.2-.23.24-.29.67-.77,8.65,7.53c2.15-2.68,2-5.81-.51-8a6.35,6.35,0,0,0-6.36-1.34c2.52-2.9,7.05-2.61,9.74-.27C408.87,1032.88,408.31,1037.67,405.56,1040.83Zm-4.66-.5-5.36-4.67c-1.76,2-2.12,4.15-.51,5.56C396.42,1042.42,399,1042.49,400.9,1040.33Z" transform="translate(-228.83 -220.58)"/><path class="cls-1" d="M379.88,1028.55l-2.93-.75,4.74-5.1a11,11,0,0,0-.34,4.53,4.89,4.89,0,0,0,1.39,2.79c1.19,1.12,2.55,1.41,3.46.44.72-.77.19-2.14-.95-3.91-2-3.06-2.91-5.39-.26-8.22a5.37,5.37,0,0,1,7.72.06,7.73,7.73,0,0,1,2.23,3.44l2.72.83-5.16,5.55a17.5,17.5,0,0,0,.56-5.76,4.64,4.64,0,0,0-1.68-2.74c-.82-.77-2.32-1.25-3.28-.23-1.32,1.41.11,3.32,1,4.66,1.86,2.68,2.37,5,.09,7.45s-5.39,2-7.58-.06A7.32,7.32,0,0,1,379.88,1028.55Z" transform="translate(-228.83 -220.58)"/><path class="cls-1" d="M366.19,1027.09a2.58,2.58,0,1,1,3.65,0A2.61,2.61,0,0,1,366.19,1027.09Zm17.06-14-6.82,6.88.85,2.61-2.79-.66-2.29-.54-2.36-.57,10.51-10.59-.18-3.54,6.49,6.44Z" transform="translate(-228.83 -220.58)"/><path class="cls-1" d="M361.39,1011.12l-.16-.18a9.56,9.56,0,0,1-2.34,3.62,3.37,3.37,0,0,1-2.12,1,2.49,2.49,0,0,1-2.14-.78,2.55,2.55,0,1,1,4.36-2.26,6.32,6.32,0,0,0,1-1.46,4.59,4.59,0,0,0,.43-1.12c-2-2.82-1.91-5.78.29-7.86,2.4-2.27,5.8-1.84,8.68.86l2.2.59c-1-2.53-2.1-5.08-2.63-6.78-.61-2.08-.12-3.3.91-4.28,2.1-2,6.6-1.19,10.08,2.49,2.83,3,4.27,6.59,2.27,8.48s-5.31,0-7.38-1.62c.6,1.53,1.19,2.94,1.35,3.4l-.79.75-2.26-.9-2.39-.6c2.2,2.88,2.33,6.08,0,8.25C368.28,1015.13,364.38,1014.28,361.39,1011.12Zm7.44-6.63c-1.4-1.48-3.14-1-5.07.82s-2.53,3.57-1.12,5.05,3.14,1,5.09-.85S370.24,1006,368.83,1004.49Zm9.7-9c-1.8-1.9-3.92-2.51-5-1.46s-.55,2.68-.13,4l.79,2.11c1.76,1.47,4.28,1.7,5.12,1C380.65,999.9,380.21,997.32,378.53,995.54Z" transform="translate(-228.83 -220.58)"/><path class="cls-1" d="M356.86,984.81l-5.54,4.77c-1.36,1.18-1.89,1.77-2.14,2.67a2.79,2.79,0,0,0,.82,2.66,3.28,3.28,0,0,0,4.37.67l6.75-5.87.06-3.57,6,6.93-3.4-.28-7.14,6.2.48,2.83-2.84-.78,0,0-3.54-1,2-2.77a5.67,5.67,0,0,1-5.71-2.11c-2.12-2.44-2.08-5.5.85-8l6.31-5.44.06-3.57,6,6.93Z" transform="translate(-228.83 -220.58)"/><path class="cls-1" d="M336.5,967.16l5,6.48-4.7,3.64-5-6.48Z" transform="translate(-228.83 -220.58)"/><path class="cls-1" d="M309.81,955.37l9.23-6.55c4.61-3.27,10.42-5.06,15,1.37s2.25,10.87-2.77,14.43l-9.73,6.9-.2,4.48-6.94-9.79,4.08,1.23,10.43-7.39c3.27-2.32,5.25-5.11,2.38-9.16-2.24-3.16-5.63-3.71-11.07.15l-8.91,6.36-.19,4.18-5.28-7.43Z" transform="translate(-228.83 -220.58)"/><path class="cls-1" d="M321.05,938.34l-.72-.07-10.15-1-4.66,10.33-.55,5.27-6.36-10.18,3.62,1.31,3.43-7.55-8.28-.48-.68,3.67-4.82-7.73,4.77,2.11,9.81.69,5.11-11.25.51-5.29,6.36,10.18L314.85,927,311,935.43l9.54.78.37-3.84,4.82,7.73Z" transform="translate(-228.83 -220.58)"/><path class="cls-1" d="M299.75,912a9,9,0,0,1-12.14-4.25,8,8,0,0,1-.9-2.94l-3.52,1.85.09,2.72-5.6-3,0,0-1.32-.69,19.31-10.15.37-3,5,3.59-2.21,2.08a6.22,6.22,0,0,1,4.73,3.44C305.28,904.84,304.75,909.38,299.75,912Zm-1.88-13.07-6.8,3.58c-2.17,1.41-2.64,3.16-1.63,5.08,1.29,2.44,4.23,2.85,7,1.41,4.06-2.13,4.85-5.31,3.44-8A4.59,4.59,0,0,0,297.87,898.93Z" transform="translate(-228.83 -220.58)"/><path class="cls-1" d="M290,893.31c-4.31,2-9.35.83-11.46-3.65-1.21-2.56-1.62-6.69,2.51-9v0l.27-.13.34-.16.92-.44,4.89,10.36c3.05-1.58,4.2-4.49,2.76-7.54a6.33,6.33,0,0,0-5.28-3.78c3.47-1.64,7.5.44,9,3.67C296.21,887.36,293.78,891.52,290,893.31ZM285.93,891l-3-6.43c-2.42,1.15-3.61,3-2.69,4.88C281,891.09,283.3,892.18,285.93,891Z" transform="translate(-228.83 -220.58)"/><path class="cls-1" d="M271.41,871.74,269,869.88l6.4-2.77a10.93,10.93,0,0,0-2.13,4,4.86,4.86,0,0,0,.15,3.12c.64,1.5,1.77,2.31,3,1.79,1-.41,1.05-1.88.71-4-.57-3.6-.5-6.11,3.06-7.63a5.38,5.38,0,0,1,7.05,3.16,7.79,7.79,0,0,1,.66,4l2.16,1.85-7,3c1.1-1.66,2.34-3.18,2.83-5.06a4.63,4.63,0,0,0-.44-3.18c-.44-1-1.62-2.07-2.91-1.53-1.78.76-1.23,3.08-.91,4.69.63,3.2.15,5.55-2.91,6.86s-5.74-.36-6.92-3.11A7.25,7.25,0,0,1,271.41,871.74Z" transform="translate(-228.83 -220.58)"/><path class="cls-1" d="M259.47,864.89a2.58,2.58,0,1,1,4.8-1.89,2.58,2.58,0,1,1-4.8,1.89Zm21.25-6-9,3.55-.28,2.74-2.29-1.73-1.87-1.42-1.93-1.47,13.89-5.46,1.25-3.31,3.35,8.51Z" transform="translate(-228.83 -220.58)"/><path class="cls-1" d="M261.5,848.32l-.08-.22a9.45,9.45,0,0,1-3.6,2.36,3.37,3.37,0,0,1-2.35.09,2.54,2.54,0,1,1,3.26-1.89,6.53,6.53,0,0,0,1.51-.94,4.52,4.52,0,0,0,.85-.84c-.71-3.4.58-6.06,3.43-7.08,3.1-1.11,6.05.66,7.6,4.29l1.77,1.43c.07-2.74.13-5.5.33-7.27.27-2.16,1.21-3.07,2.56-3.55,2.72-1,6.51,1.57,8.22,6.34,1.38,3.87,1.25,7.75-1.34,8.67s-4.85-2.16-6.11-4.46c-.06,1.65-.09,3.18-.13,3.66l-1,.37-1.7-1.74-1.95-1.5c.86,3.51-.31,6.5-3.29,7.56C266.19,854.77,263,852.42,261.5,848.32Zm9.48-3.06c-.69-1.93-2.48-2.19-5-1.3s-3.75,2.25-3.06,4.17,2.47,2.18,5,1.28S271.67,847.18,271,845.26ZM283.46,841c-.88-2.47-2.58-3.88-4-3.37s-1.59,2.23-1.72,3.58l-.13,2.25c1,2,3.23,3.28,4.3,2.94C283.64,845.82,284.28,843.28,283.46,841Z" transform="translate(-228.83 -220.58)"/><path class="cls-1" d="M268,822.43l-7,2.13c-1.72.53-2.44.86-3,1.58a2.78,2.78,0,0,0-.31,2.77,3.25,3.25,0,0,0,3.72,2.37l8.54-2.65,1.49-3.24,2.72,8.78-3-1.64-9,2.8-.71,2.78-2.28-1.86h0l-2.86-2.32,3-1.73a5.67,5.67,0,0,1-4.38-4.24c-.95-3.08.32-5.86,4-7l8-2.43,1.49-3.24,2.71,8.77Z" transform="translate(-228.83 -220.58)"/><path class="cls-1" d="M256.47,798.06l2,8-5.77,1.43-2-8Z" transform="translate(-228.83 -220.58)"/><path class="cls-1" d="M235.06,766l11.14-2c5.56-1,11.58-.14,13,7.62s-2.59,10.79-8.65,11.88l-11.74,2.11-2.09,4-2.12-11.82,3.17,2.85,12.59-2.26c3.94-.71,6.92-2.38,6-7.27-.69-3.81-3.52-5.75-10.08-4.58l-10.77,2-2,3.71-1.61-9Z" transform="translate(-228.83 -220.58)"/><path class="cls-1" d="M252.48,755.44l-.63-.37-8.74-5.25-8.6,7.37-2.74,4.54-1.43-11.92,2.72,2.72,6.31-5.38-7.29-3.95-2.17,3-1.08-9,3.41,3.94,8.59,4.79,9.41-8,2.71-4.57,1.42,11.91-2.68-2.72-7.06,6,8.31,4.76,2-3.32,1.08,9Z" transform="translate(-228.83 -220.58)"/><path class="cls-1" d="M249.75,720.4l-9.44.5L239,723.42l-1.76-2.36h0l-2.2-3,4.26-1.15c-2.28-.66-4-2.17-4.13-4.14a2.53,2.53,0,0,1,2.51-2.68,2.6,2.6,0,0,1,2.88,2.23,2.52,2.52,0,0,1-2.28,2.67,7,7,0,0,0,4.89,1.62l6.45-.35,2.23-2.77.49,9.17Z" transform="translate(-228.83 -220.58)"/><path class="cls-1" d="M243.69,708.37c-4.76.08-8.86-3.07-8.95-8-.05-2.82,1.27-6.75,6-7.18v0h.68l1,0,.2,11.45c3.44-.19,5.67-2.38,5.61-5.74a6.34,6.34,0,0,0-3.26-5.62c3.84-.07,6.66,3.48,6.73,7.05C251.8,705.5,247.87,708.29,243.69,708.37Zm-2.76-3.79-.12-7.11c-2.69,0-4.5,1.2-4.47,3.34C236.38,702.65,238,704.59,240.93,704.58Z" transform="translate(-228.83 -220.58)"/><path class="cls-1" d="M235.58,681.1l-1.41-2.68,7,.09a11.06,11.06,0,0,0-3.59,2.79,4.92,4.92,0,0,0-1.14,2.91c0,1.63.66,2.83,2,2.86,1,0,1.72-1.3,2.27-3.33,1-3.52,2-5.78,5.92-5.71a5.38,5.38,0,0,1,5.13,5.77,7.74,7.74,0,0,1-1.06,4l1.22,2.58-7.59-.11a17.38,17.38,0,0,0,4.66-3.45,4.64,4.64,0,0,0,.9-3.08c0-1.12-.63-2.56-2-2.59-1.93,0-2.38,2.31-2.75,3.9-.74,3.18-2.14,5.13-5.47,5.07s-5.08-2.67-5-5.67A7.23,7.23,0,0,1,235.58,681.1Z" transform="translate(-228.83 -220.58)"/><path class="cls-1" d="M243.75,674.86c-4.75-.26-8.62-3.7-8.35-8.66.16-2.82,1.76-6.64,6.5-6.73v0h.31l.37,0,1,0L243,671c3.43,0,5.82-2,6-5.32a6.38,6.38,0,0,0-2.85-5.85c3.83.21,6.39,4,6.19,7.53C252.05,672.59,247.93,675.09,243.75,674.86Zm-2.47-4,.39-7.1c-2.69-.14-4.58.88-4.7,3C236.87,668.63,238.4,670.69,241.28,670.88Z" transform="translate(-228.83 -220.58)"/><path class="cls-1" d="M241.94,646.85c-2.31-.08-3.7,1.29-3.86,3-.1,1,0,2.63.59,3.17a2.46,2.46,0,0,1,2.74-1.59,2.4,2.4,0,0,1,2.15,2.56c-.14,1.49-1.4,2.19-2.95,2-2-.19-4.43-3.42-4.1-6.9l.05-.55c.27-2.94,1.92-5.93,6.46-5.5l8.15.8,2.91-2.32-.52,5.55-2.68.6a6.73,6.73,0,0,1,2.55,5.91,3.82,3.82,0,0,1-4.24,3.76c-2.37-.22-3.57-2.35-3.89-4.49-.34-2.49-.41-5.74-3.36-6Zm6.93.75-4.09-.45a7.37,7.37,0,0,1,1.84,3.38c.64,1.91,1.35,2.66,2.64,2.78a1.66,1.66,0,0,0,1.78-1.58A4.38,4.38,0,0,0,248.87,647.6Z" transform="translate(-228.83 -220.58)"/><path class="cls-1" d="M252.18,637.89l-9.37-1.21-1.8,2.24-1.31-2.64h0L238,633l4.4-.36c-2.12-1.06-3.57-2.86-3.32-4.82a2.54,2.54,0,0,1,3-2.18,2.59,2.59,0,0,1,2.42,2.71,2.51,2.51,0,0,1-2.72,2.22A7,7,0,0,0,246.3,633l6.41.83,2.7-2.33-1.18,9.11Z" transform="translate(-228.83 -220.58)"/><path class="cls-1" d="M248.59,625c-5.36-.89-8.28-5.13-7.43-10.23.52-3.15,2.91-5.34,5.63-4.89a2.45,2.45,0,0,1,2.18,2.84,2.29,2.29,0,0,1-2.84,2c-1.34-.22-3.13-1.31-3.46.7-.42,2.52,1.45,5,4.67,5.5,4.1.67,6.73-1.3,7.27-4.56a6.16,6.16,0,0,0-2.24-6.05c3.79.63,5.95,4.64,5.4,8A7.73,7.73,0,0,1,248.59,625Z" transform="translate(-228.83 -220.58)"/><path class="cls-1" d="M249,601.35l8.82,1.85,2.87-2.11-1.87,9-1.86-2.92-17.17-3.59-1.67,2.15-2.92-7.28,11.14,2.37a5.67,5.67,0,0,1-1.42-5.51c.66-3.16,3.13-5,6.92-4.18l8.15,1.74,2.87-2.11-1.88,9-1.83-2.88L252,595.31c-1.76-.37-2.55-.43-3.42-.09a2.78,2.78,0,0,0-1.62,2.27A3.29,3.29,0,0,0,249,601.35Z" transform="translate(-228.83 -220.58)"/><path class="cls-1" d="M260.85,570l-2.13,7.91L253,576.32l2.13-7.91Z" transform="translate(-228.83 -220.58)"/><path class="cls-1" d="M257.65,531.56l10.72,3.65c5.34,1.82,10.2,5.48,7.66,12.95s-7.49,8.18-13.32,6.2l-11.29-3.84L247.67,553l3.87-11.36,1.39,4,12.1,4.11c3.8,1.3,7.22,1.28,8.82-3.42,1.24-3.67-.3-6.74-6.6-8.89L256.87,534l-3.5,2.29,2.93-8.62Z" transform="translate(-228.83 -220.58)"/><path class="cls-1" d="M262.85,519.19,280.22,526l4-2.4-4.39,11.17-1.24-4.29L261,523.57l-3.86,2.28,4.38-11.17Z" transform="translate(-228.83 -220.58)"/><path class="cls-1" d="M281.85,509.15a9.06,9.06,0,0,1-4-12.24,8.32,8.32,0,0,1,1.8-2.5l-3.61-1.67-2.11,1.72-1-6.31,0,0-.25-1.47,19.79,9.2,2.58-1.5.17,6.15-3-.49a6.2,6.2,0,0,1,.14,5.84C290.9,509.2,287,511.53,281.85,509.15Zm9.25-9.42-7-3.24c-2.44-.87-4.11-.19-5,1.79-1.16,2.5.3,5.09,3.11,6.39,4.16,1.93,7.17.63,8.44-2.11A4.49,4.49,0,0,0,291.1,499.73Z" transform="translate(-228.83 -220.58)"/><path class="cls-1" d="M290.8,490.05c-4.22-2.19-6.33-6.92-4.05-11.33,1.3-2.5,4.34-5.33,8.69-3.46l0,0,.27.14.33.17.9.47-5.27,10.17c3.11,1.46,6.12.61,7.67-2.38a6.33,6.33,0,0,0-.19-6.49c3.41,1.76,4.19,6.23,2.55,9.4C299.3,491.39,294.51,492,290.8,490.05Zm-.62-4.65,3.27-6.31c-2.38-1.23-4.53-1.08-5.51.82C287.09,481.54,287.63,484,290.18,485.4Z" transform="translate(-228.83 -220.58)"/><path class="cls-1" d="M296.67,462.19l0-3,6.09,3.4a11,11,0,0,0-4.49.74,4.89,4.89,0,0,0-2.38,2c-.81,1.42-.77,2.81.38,3.46.92.52,2.13-.31,3.58-1.84,2.51-2.64,4.55-4.1,7.92-2.2a5.37,5.37,0,0,1,1.76,7.52,7.76,7.76,0,0,1-2.81,3l-.16,2.84L300,474.37a17.57,17.57,0,0,0,5.74-.81,4.64,4.64,0,0,0,2.26-2.28c.55-1,.66-2.55-.55-3.24-1.69-1-3.2.89-4.28,2.11-2.16,2.45-4.32,3.5-7.22,1.86s-3.19-4.78-1.72-7.38A7.19,7.19,0,0,1,296.67,462.19Z" transform="translate(-228.83 -220.58)"/><path class="cls-1" d="M294.87,448.53a2.58,2.58,0,0,1,4.42,2.67,2.58,2.58,0,0,1-3.55.88A2.61,2.61,0,0,1,294.87,448.53Zm17.63,13.29-8.29-5-2.34,1.45,0-2.87V450.6l12.77,7.72,3.4-1-4.74,7.83Z" transform="translate(-228.83 -220.58)"/><path class="cls-1" d="M309.25,440.12l.13-.2a9.52,9.52,0,0,1-4.06-1.42,3.36,3.36,0,0,1-1.5-1.82,2.55,2.55,0,0,1,3.78-3,2.54,2.54,0,0,1,.76,3.53,2.56,2.56,0,0,1-1.06.94,7,7,0,0,0,1.66.63,5.21,5.21,0,0,0,1.19.16c2.27-2.62,5.17-3.22,7.71-1.57,2.76,1.79,3.15,5.2,1.2,8.64l-.05,2.27c2.21-1.6,4.44-3.23,6-4.15,1.88-1.09,3.18-.9,4.37-.12,2.43,1.57,2.72,6.13,0,10.39-2.24,3.45-5.4,5.7-7.71,4.2s-1.22-5.17-.16-7.56c-1.35,1-2.58,1.85-3,2.11l-.92-.59.35-2.41,0-2.46c-2.28,2.82-5.36,3.7-8,2C307,447.76,306.89,443.77,309.25,440.12Zm8.2,5.67c1.11-1.71.23-3.29-2-4.73s-4.06-1.62-5.16.09-.24,3.3,2,4.76S316.34,447.51,317.45,445.79Zm11,7.32c1.42-2.19,1.51-4.4.23-5.23s-2.73.09-3.89.8l-1.87,1.26c-1,2.06-.64,4.56.28,5.2C324.68,456.2,327.09,455.17,328.43,453.11Z" transform="translate(-228.83 -220.58)"/><path class="cls-1" d="M333.76,429.53l-5.94-4.26c-1.47-1-2.16-1.42-3.1-1.45a2.79,2.79,0,0,0-2.39,1.42,3.25,3.25,0,0,0,.38,4.4l7.29,5.18,3.47-.78-5.31,7.48-.53-3.37-7.7-5.48-2.64,1.13.09-2.94,0,0,.11-3.68,3.17,1.3a5.69,5.69,0,0,1,.71-6c1.87-2.63,4.86-3.3,8-1.06l6.77,4.86,3.48-.79-5.32,7.49Z" transform="translate(-228.83 -220.58)"/><path class="cls-1" d="M346.13,405.58,341,412l-4.65-3.71,5.12-6.4Z" transform="translate(-228.83 -220.58)"/><path class="cls-1" d="M358.7,368.94l8.36,7.63c4.17,3.8,7.16,9.1,1.84,14.93s-10.14,4.51-14.68.36l-8.82-8-4.41.76,8.08-8.87-.33,4.25,9.44,8.62c3,2.7,6.11,4.05,9.45.38,2.61-2.86,2.43-6.3-2.49-10.79L357,370.82l-4.13.7,6.13-6.73Z" transform="translate(-228.83 -220.58)"/><path class="cls-1" d="M377.71,376.31l-.09-.72-1.15-10.14-11.08-2.35-5.27.59,8.59-8.39-.5,3.82,8.1,1.74L375,352.67l-3.73.12,6.52-6.37-1.05,5.11,1.42,9.73,12.09,2.61,5.27-.64L387,371.62l.53-3.8-9.07-1.94,1.28,9.49,3.83-.45L377,381.28Z" transform="translate(-228.83 -220.58)"/><path class="cls-1" d="M398.92,349.86a9.07,9.07,0,0,1,1.57-12.78,8.14,8.14,0,0,1,2.69-1.5l-2.56-3.05-2.64.67,1.78-6.12,0,0,.39-1.44,14.05,16.72,3-.28-2.44,5.66L412.24,346a6.2,6.2,0,0,1-2.35,5.35C407.11,353.73,402.56,354.18,398.92,349.86Zm12.38-4.62-4.95-5.89c-1.84-1.82-3.65-1.91-5.31-.5-2.11,1.77-1.89,4.73.11,7.1,3,3.51,6.22,3.61,8.54,1.66A4.53,4.53,0,0,0,411.3,345.24Z" transform="translate(-228.83 -220.58)"/><path class="cls-1" d="M415.1,336.34c-2.91-3.77-2.82-8.94,1.11-12,2.24-1.72,6.19-3,9.34.53l0,0,.18.24.23.3.62.81-9.07,7c2.2,2.64,5.29,3.13,8,1.08a6.35,6.35,0,0,0,2.56-6c2.35,3,1.17,7.42-1.65,9.6C422.23,341.15,417.65,339.66,415.1,336.34Zm1.4-4.47,5.63-4.33c-1.64-2.13-3.65-2.9-5.35-1.59C415.33,327.07,414.76,329.56,416.5,331.87Z" transform="translate(-228.83 -220.58)"/><path class="cls-1" d="M432.19,313.57l1.31-2.73,4.07,5.66a11,11,0,0,0-4.37-1.22,4.89,4.89,0,0,0-3,.81c-1.33,1-1.88,2.22-1.11,3.3.61.86,2.07.61,4-.16,3.4-1.33,5.86-1.79,8.11,1.36a5.37,5.37,0,0,1-1.58,7.56,7.73,7.73,0,0,1-3.81,1.51l-1.34,2.5L430,326a17.35,17.35,0,0,0,5.54,1.68,4.62,4.62,0,0,0,3-1.1c.92-.65,1.68-2,.87-3.17-1.12-1.58-3.27-.55-4.77.1-3,1.31-5.39,1.34-7.32-1.37s-.88-5.68,1.55-7.42A7.22,7.22,0,0,1,432.19,313.57Z" transform="translate(-228.83 -220.58)"/><path class="cls-1" d="M436.31,300.43a2.64,2.64,0,0,1,3.59.71,2.58,2.58,0,1,1-3.59-.71Zm10.38,19.49-5.4-8.05-2.73.32,1.2-2.6,1-2.14,1-2.2,8.32,12.4,3.5.51-7.59,5.1Z" transform="translate(-228.83 -220.58)"/><path class="cls-1" d="M452.92,298.88l.2-.13a9.5,9.5,0,0,1-3.08-3,3.37,3.37,0,0,1-.59-2.28,2.55,2.55,0,1,1,3.9,2.37,2.61,2.61,0,0,1-1.35.41,6.15,6.15,0,0,0,1.23,1.27,4.78,4.78,0,0,0,1,.65c3.16-1.42,6-.74,7.65,1.83,1.75,2.79.66,6-2.56,8.34l-1,2c2.69-.52,5.4-1.06,7.17-1.24,2.16-.2,3.26.52,4,1.73,1.54,2.45-.13,6.71-4.42,9.4-3.49,2.18-7.3,2.88-8.76.55s1.07-5.21,3-6.92c-1.62.29-3.12.59-3.6.65l-.58-.92,1.33-2,1.06-2.22c-3.26,1.59-6.42,1.09-8.1-1.59C447.63,304.84,449.23,301.19,452.92,298.88Zm5,8.6c1.73-1.08,1.6-2.89.19-5.13s-3-3.18-4.72-2.1-1.6,2.89-.17,5.16S456.22,308.56,458,307.48Zm6.86,11.27c2.22-1.39,3.24-3.35,2.42-4.65s-2.51-1.07-3.86-.91l-2.22.35c-1.79,1.44-2.52,3.86-1.95,4.83C460.12,320,462.74,320.05,464.81,318.75Z" transform="translate(-228.83 -220.58)"/><path class="cls-1" d="M479.61,299.62,476,293.25c-.89-1.57-1.37-2.2-2.2-2.63a2.78,2.78,0,0,0-2.77.29,3.24,3.24,0,0,0-1.51,4.14l4.41,7.78,3.49.76-8,4.53.95-3.28-4.67-8.21-2.87-.09,1.32-2.63,0,0,1.66-3.29,2.32,2.51a5.66,5.66,0,0,1,3.2-5.18c2.81-1.59,5.79-.94,7.71,2.43l4.09,7.25,3.48.76-8,4.54Z" transform="translate(-228.83 -220.58)"/><path class="cls-1" d="M500.92,283.15l-7.34,3.63-2.64-5.33,7.34-3.64Z" transform="translate(-228.83 -220.58)"/><path class="cls-1" d="M527.58,255.35l4.36,10.45c2.17,5.21,2.63,11.28-4.65,14.31s-11.1-.2-13.46-5.88l-4.59-11L504.91,262,516,257.42l-2.1,3.71,4.92,11.8c1.54,3.7,3.82,6.25,8.4,4.34,3.58-1.49,4.87-4.68,2.31-10.83l-4.25-10.09-4-1.12,8.42-3.5Z" transform="translate(-228.83 -220.58)"/><path class="cls-1" d="M540.29,251.05l6.39,17.54,4.46,1.42-11.28,4.11,2.39-3.77-6.48-17.8-4.27-1.37,11.28-4.11Z" transform="translate(-228.83 -220.58)"/><path class="cls-1" d="M560.39,258.66a9.06,9.06,0,0,1,6.54-11.08,8.26,8.26,0,0,1,3.07-.31l-1.13-3.81-2.69-.45,4.08-4.89v0l.93-1.16,6.2,20.92,2.83.93-4.49,4.21-1.62-2.57a6.19,6.19,0,0,1-4.28,4C566.35,265.48,562,264.07,560.39,258.66Zm13.19.7L571.4,252c-1-2.41-2.59-3.21-4.67-2.59-2.64.78-3.62,3.59-2.74,6.55,1.31,4.4,4.27,5.79,7.17,4.93A4.47,4.47,0,0,0,573.58,259.36Z" transform="translate(-228.83 -220.58)"/><path class="cls-1" d="M580.65,252.72c-1.15-4.61,1-9.32,5.82-10.53,2.73-.68,6.87-.27,8.34,4.23h0l.08.3.09.36.25,1-11.12,2.78c1,3.3,3.59,5,6.86,4.17a6.34,6.34,0,0,0,4.74-4.44c.93,3.72-1.9,7.27-5.36,8.14C585.27,260,581.66,256.78,580.65,252.72Zm3.08-3.53,6.89-1.73c-.65-2.6-2.18-4.11-4.26-3.59C584.58,244.31,583.06,246.38,583.73,249.19Z" transform="translate(-228.83 -220.58)"/><path class="cls-1" d="M605.4,238.7l2.3-2,1.47,6.81a10.84,10.84,0,0,0-3.53-2.87,4.86,4.86,0,0,0-3.08-.46c-1.6.33-2.62,1.28-2.34,2.58.22,1,1.65,1.39,3.75,1.46,3.64.14,6.09.7,6.89,4.49a5.39,5.39,0,0,1-4.48,6.3,7.73,7.73,0,0,1-4.09-.15l-2.24,1.76-1.6-7.41c1.41,1.4,2.67,2.91,4.41,3.76a4.62,4.62,0,0,0,3.2.19c1.1-.23,2.36-1.19,2.07-2.55-.4-1.9-2.78-1.81-4.41-1.82-3.27,0-5.48-.93-6.17-4.19s1.47-5.55,4.4-6.17A7.22,7.22,0,0,1,605.4,238.7Z" transform="translate(-228.83 -220.58)"/><path class="cls-1" d="M616.17,250.33l-1.72-9.54-2.64-.8,2.15-1.91,1.75-1.56,1.82-1.61,2.66,14.69,3,1.88-9,1.62Zm-1.7-22a2.59,2.59,0,0,1,.92,5.09,2.59,2.59,0,0,1-.92-5.09Z" transform="translate(-228.83 -220.58)"/><path class="cls-1" d="M630.28,233.54l.24,0a9.65,9.65,0,0,1-1.63-4,3.36,3.36,0,0,1,.38-2.32A2.55,2.55,0,0,1,634,228a2.52,2.52,0,0,1-2.14,2.9,2.49,2.49,0,0,1-1.4-.17,5.88,5.88,0,0,0,.62,1.66,4.71,4.71,0,0,0,.67,1c3.46,0,5.82,1.75,6.27,4.74.49,3.26-1.82,5.81-5.68,6.62l-1.75,1.46c2.67.6,5.37,1.2,7.07,1.74,2.06.69,2.77,1.78,3,3.2.43,2.86-2.8,6.09-7.81,6.83-4.07.61-7.85-.27-8.25-3s3.06-4.34,5.56-5.12c-1.6-.38-3.1-.71-3.56-.85l-.16-1.07,2-1.34,1.86-1.62c-3.62.17-6.32-1.56-6.78-4.69C623,236.89,626,234.18,630.28,233.54Zm1.16,9.9c2-.3,2.63-2,2.24-4.63s-1.47-4.11-3.49-3.81-2.62,2-2.23,4.66S629.43,243.74,631.44,243.44Zm1.78,13.07c2.59-.38,4.31-1.77,4.08-3.28s-1.88-2-3.17-2.39l-2.18-.56c-2.22.6-3.85,2.53-3.72,3.64C628.43,255.75,630.8,256.87,633.22,256.51Z" transform="translate(-228.83 -220.58)"/><path class="cls-1" d="M654.45,244.92l-.73-7.27c-.19-1.8-.37-2.56-1-3.29a2.79,2.79,0,0,0-2.65-.85,3.26,3.26,0,0,0-3.05,3.19l.93,8.9,2.89,2.09-9.13,1,2.18-2.63-1-9.4-2.59-1.23,2.26-1.88v0l2.83-2.35,1.12,3.23a5.64,5.64,0,0,1,5-3.46c3.22-.34,5.7,1.45,6.1,5.3l.84,8.29,2.88,2.09-9.12,1Z" transform="translate(-228.83 -220.58)"/><path class="cls-2" d="M680.93,224.51l1.51,7.39,5.9-4.69-3.6,6.62,7.53.2-7,2.76,5.64,5-7.15-2.39,1.11,7.45-3.94-6.42L677,246.85l1.11-7.45L671,241.79l5.64-5-7-2.76,7.53-.2-3.59-6.62,5.9,4.69Z" transform="translate(-228.83 -220.58)"/></svg>