<svg width="32" height="32" viewBox="0 0 32 32" fill="none" xmlns="http://www.w3.org/2000/svg">
<g clip-path="url(#clip0_8_19)">
<path d="M-0.00927734 2.29231C-0.00927734 1.02696 1.04968 0 2.35523 0H29.6181C30.924 0 31.9826 1.02696 31.9826 2.29231V29.7081C31.9826 30.9739 30.924 32 29.6181 32H2.35523C1.04968 32 -0.00927734 30.9739 -0.00927734 29.7085V2.29189V2.29231Z" fill="white"/>
<path d="M9.6886 26.7871V12.3374H4.85654V26.7871H9.68902H9.6886ZM7.27342 10.3649C8.95813 10.3649 10.007 9.25528 10.007 7.86864C9.9753 6.45053 8.95813 5.37195 7.3055 5.37195C5.65161 5.37195 4.57153 6.45053 4.57153 7.86864C4.57153 9.25528 5.61994 10.3649 7.24174 10.3649H7.27299H7.27342ZM12.363 26.7871H17.1947V18.7187C17.1947 18.2873 17.2263 17.855 17.3539 17.547C17.703 16.6837 18.4981 15.7902 19.8332 15.7902C21.5813 15.7902 22.2809 17.1151 22.2809 19.0578V26.7871H27.1125V18.5022C27.1125 14.064 24.729 11.9987 21.55 11.9987C18.9436 11.9987 17.7989 13.4467 17.163 14.4329H17.1951V12.3378H12.3635C12.4264 13.6934 12.363 26.7875 12.363 26.7875V26.7871Z" fill="#1D1D1D"/>
</g>
<defs>
<clipPath id="clip0_8_19">
<rect width="32" height="32" fill="white"/>
</clipPath>
</defs>
</svg>
